<svg width="56" height="57" viewBox="0 0 56 57" fill="none" xmlns="http://www.w3.org/2000/svg">
<path d="M0.345703 2.95697C0.345703 1.8524 1.24113 0.95697 2.3457 0.95697H54.3457C55.4503 0.95697 56.3457 1.8524 56.3457 2.95697V54.6559C56.3457 55.7605 55.4503 56.6559 54.3457 56.6559H2.3457C1.24113 56.6559 0.345703 55.7605 0.345703 54.6559V2.95697Z" fill="white"/>
<g clip-path="url(#clip0_473_218)">
<path d="M29.6713 28.8072L40.0709 18.4077C40.437 18.0415 40.437 17.4479 40.0709 17.0818C39.7047 16.7157 39.1111 16.7157 38.745 17.0818L28.3454 27.4814L17.9459 17.0818C17.5798 16.7157 16.9862 16.7157 16.6201 17.0818C16.254 17.4479 16.2539 18.0416 16.6201 18.4077L27.0196 28.8072L16.6201 39.2068C16.2539 39.5729 16.2539 40.1665 16.6201 40.5326C16.8031 40.7157 17.0431 40.8072 17.283 40.8072C17.523 40.8072 17.7629 40.7157 17.946 40.5326L28.3454 30.1331L38.745 40.5326C38.928 40.7157 39.168 40.8072 39.4079 40.8072C39.6479 40.8072 39.8878 40.7157 40.0709 40.5326C40.437 40.1665 40.437 39.5729 40.0709 39.2068L29.6713 28.8072Z" fill="#135978" fill-opacity="0.5"/>
</g>
<defs>
<clipPath id="clip0_473_218">
<rect width="24" height="24" fill="white" transform="translate(16.3457 16.8065)"/>
</clipPath>
</defs>
</svg>
